<?xml version="1.0" encoding="utf-8"?>
<!-- Svg Vector Icons : http://www.onlinewebfonts.com/icon -->
<!DOCTYPE svg PUBLIC "-//W3C//DTD SVG 1.1//EN" "http://www.w3.org/Graphics/SVG/1.1/DTD/svg11.dtd">
<svg version="1.1" xmlns="http://www.w3.org/2000/svg" xmlns:xlink="http://www.w3.org/1999/xlink" width="24px" height="24px" viewBox="0 0 1000 1000" xml:space="preserve">
<metadata> Svg Vector Icons : http://www.onlinewebfonts.com/icon </metadata>
<g><g transform="translate(0.000000,446.000000) scale(0.100000,-0.100000)"><path d="M4326.2,4322.9c-1075-143.5-2141.2-693.2-2891.8-1490C703.7,2055.9,238,1051.5,123.2,7.3c-30.9-275.9-30.9-819,0-1094.9c121.4-1099.3,615.9-2123.6,1410.6-2918.3c741.7-741.7,1642.3-1203.1,2693.1-1379.7c289.2-48.6,947-68.4,1260.5-35.3c2132.4,220.8,3876.3,1781.4,4313.4,3865.3c94.9,450.3,125.8,1099.3,75.1,1562.9C9697,1643.1,8690.4,3089,7209.1,3839.5c-496.7,251.7-1028.7,417.2-1565.1,485.6C5304.1,4369.3,4659.5,4367.1,4326.2,4322.9z M6390.2,1987.4v-518.8h-375.3c-439.3,0-483.4-13.3-538.6-158.9c-28.7-75.1-35.3-163.4-30.9-426l6.6-331.1l481.2-6.6l479-4.4l-11-83.9c-13.2-90.5-99.3-920.5-99.3-955.9c0-11-174.4-19.9-430.5-19.9H5441v-1512.1v-1512.1h-629.1h-629.1v1512.1V-518h-298h-298V11.8v529.8h298h298v373c0,452.5,26.5,666.7,112.6,885.2c119.2,309,357.6,536.4,666.7,637.9c194.3,61.8,187.6,61.8,838.8,66.2l589.4,2.2V1987.4z"/></g></g>
</svg>