<?xml version="1.0" encoding="utf-8"?>
<!-- Svg Vector Icons : http://www.onlinewebfonts.com/icon -->
<!DOCTYPE svg PUBLIC "-//W3C//DTD SVG 1.1//EN" "http://www.w3.org/Graphics/SVG/1.1/DTD/svg11.dtd">
<svg version="1.1" xmlns="http://www.w3.org/2000/svg" xmlns:xlink="http://www.w3.org/1999/xlink" width="24px" height="24px" viewBox="0 0 1000 1000" xml:space="preserve">
<metadata> Svg Vector Icons : http://www.onlinewebfonts.com/icon </metadata>
<g><path d="M500,10C229.4,10,10,229.4,10,500c0,270.6,219.4,490,490,490c270.6,0,490-219.4,490-490C990,229.4,770.6,10,500,10z M781.6,355.6c0.3,6.2,0.4,12.5,0.4,18.8c0,192-146.1,413.4-413.4,413.4c-82,0-158.4-24-222.7-65.3c11.4,1.3,22.9,2,34.7,2c68.1,0,130.7-23.2,180.4-62.2c-63.6-1.2-117.2-43.2-135.7-100.9c8.9,1.7,18,2.6,27.3,2.6c13.3,0,26.1-1.8,38.3-5.1c-66.5-13.4-116.6-72.1-116.6-142.5c0-0.6,0-1.2,0-1.8c19.6,10.9,42,17.4,65.8,18.2c-39-26.1-64.6-70.5-64.6-120.9c0-26.6,7.2-51.6,19.7-73c71.7,87.9,178.7,145.7,299.5,151.8c-2.5-10.6-3.8-21.7-3.8-33.1c0-80.2,65-145.3,145.3-145.3c41.8,0,79.6,17.6,106.1,45.9c33.1-6.5,64.2-18.6,92.3-35.2c-10.8,33.9-33.9,62.4-63.9,80.4c29.4-3.5,57.4-11.3,83.5-22.9C834.6,309.5,810,335.1,781.6,355.6L781.6,355.6z"/></g>
</svg>